<svg width="77" height="29" viewBox="0 0 77 29" fill="none" xmlns="http://www.w3.org/2000/svg">
<path d="M17.6509 6.88512L23.0462 4.31495L21.452 10.0746L21.3164 10.5645L21.8085 10.692L26.3745 11.8752L26.4999 11.9078L26.6253 11.8752L31.1914 10.692L31.6834 10.5645L31.5478 10.0746L29.9537 4.31495L35.349 6.88512L35.8079 7.10372L36.0189 6.64129L38.4999 1.20439L40.9809 6.64129L41.192 7.10372L41.6509 6.88512L47.0462 4.31495L45.452 10.0746L45.3164 10.5645L45.8085 10.692L50.3745 11.8752L50.4999 11.9078L50.6254 11.8752L55.1914 10.692L55.6834 10.5645L55.5478 10.0746L53.9537 4.31495L59.349 6.88512L59.8079 7.10372L60.0189 6.64129L62.4999 1.20439L64.9809 6.64129L65.192 7.10372L65.6509 6.88512L71.0462 4.31495L69.452 10.0746L69.3164 10.5645L69.8085 10.692L75.5936 12.1912L70.6701 15.5787L70.2513 15.8668L70.5463 16.2807L74.0143 21.1478L68.0653 20.578L67.5593 20.5295L67.5192 21.0362L67.0473 26.9937L62.8564 22.7333L62.4999 22.371L62.1435 22.7333L57.9526 26.9937L57.4807 21.0362L57.4405 20.5295L56.9346 20.578L50.9856 21.1478L54.4535 16.2807L54.7485 15.8668L54.3298 15.5787L50.7833 13.1386L50.4999 12.9436L50.2165 13.1386L46.6701 15.5787L46.2513 15.8668L46.5463 16.2807L50.0142 21.1478L44.0653 20.578L43.5593 20.5295L43.5192 21.0362L43.0473 26.9937L38.8564 22.7333L38.4999 22.371L38.1435 22.7333L33.9526 26.9937L33.4807 21.0362L33.4405 20.5295L32.9346 20.578L26.9856 21.1478L30.4535 16.2807L30.7485 15.8668L30.3298 15.5787L26.7833 13.1386L26.4999 12.9436L26.2165 13.1386L22.6701 15.5787L22.2514 15.8668L22.5463 16.2807L26.0142 21.1478L20.0653 20.578L19.5593 20.5295L19.5192 21.0362L19.0473 26.9937L14.8564 22.7333L14.4999 22.371L14.1435 22.7333L9.95256 26.9937L9.48068 21.0362L9.44054 20.5295L8.93456 20.578L2.98559 21.1478L6.45354 16.2807L6.74849 15.8668L6.32975 15.5787L1.4063 12.1912L7.19139 10.692L7.68344 10.5645L7.54785 10.0746L5.95367 4.31495L11.349 6.88512L11.8079 7.10372L12.0189 6.64129L14.4999 1.20439L16.9809 6.64129L17.192 7.10372L17.6509 6.88512ZM50.4114 21.7051L50.1291 21.7322L50.0048 21.744L50.0003 21.7911L49.9426 21.75L49.9322 21.6422L49.7694 21.6266L49.4391 21.595L50.4114 21.7051Z" stroke="white"/>
</svg>
