<svg width="29" height="29" viewBox="0 0 29 29" fill="none" xmlns="http://www.w3.org/2000/svg">
<path d="M17.6515 6.88508L23.0469 4.31497L21.4527 10.0746L21.3171 10.5645L21.8091 10.692L27.5942 12.1912L22.6708 15.5787L22.252 15.8668L22.547 16.2807L26.015 21.1478L20.066 20.578L19.56 20.5295L19.5199 21.0362L19.048 26.9938L14.8571 22.7334L14.5006 22.371L14.1442 22.7334L9.95324 26.9938L9.48136 21.0362L9.44123 20.5295L8.93525 20.578L2.98627 21.1478L6.45422 16.2807L6.74918 15.8668L6.33043 15.5787L1.40698 12.1912L7.19208 10.692L7.68412 10.5645L7.54853 10.0746L5.95435 4.31497L11.3497 6.88508L11.8086 7.10367L12.0196 6.64125L14.5006 1.20438L16.9816 6.64125L17.1927 7.10367L17.6515 6.88508Z" stroke="white"/>
</svg>
