<svg width="16" height="16" viewBox="0 0 16 16" fill="none" xmlns="http://www.w3.org/2000/svg">
<path d="M8 0C3.58832 0 0 3.58832 0 8C0 12.4117 3.58832 16 8 16C12.4117 16 16 12.4117 16 8C16 3.58832 12.4117 0 8 0ZM15.2282 7.61905H12.6935C12.622 4.88889 11.7818 2.55746 10.5218 1.21625C13.1608 2.19939 15.0756 4.68064 15.2282 7.61905ZM7.6221 0.797715C7.6221 0.810611 7.61912 0.825494 7.61912 0.83839V7.61909H4.06864C4.17579 4.09629 5.72729 1.14794 7.6221 0.797715ZM7.61912 8.38095V15.1617C7.61912 15.1745 7.6221 15.1894 7.6221 15.2023C5.72526 14.8521 4.17371 11.9038 4.06959 8.38099L7.61912 8.38095ZM8.37805 15.2023C8.37805 15.1894 8.38103 15.1745 8.38103 15.1616V8.38091H11.9315C11.8244 11.9037 10.2729 14.8521 8.37805 15.2023ZM8.38103 7.61905V0.838349C8.38103 0.825453 8.37805 0.81057 8.37805 0.797674C10.2749 1.14787 11.8264 4.09621 11.9306 7.61901L8.38103 7.61905ZM5.47817 1.21625C4.21826 2.55751 3.37798 4.88889 3.30654 7.61905H0.771809C0.924587 4.68064 2.83934 2.19937 5.47817 1.21625ZM0.771886 8.38095H3.30662C3.37804 11.1111 4.21831 13.4425 5.47825 14.7837C2.83926 13.8006 0.924521 11.3194 0.771886 8.38095ZM10.522 14.7837C11.7819 13.4425 12.6222 11.1111 12.6936 8.38095H15.2283C15.0756 11.3194 13.1608 13.8006 10.522 14.7837Z" fill="white"/>
</svg>
